# xmcd CD database file
#
# Track frame offsets:
#	187
#	27887
#	48769
#	78634
#	110234
#	144142
#	169409
#	198414
#	227842
#	255214
#
# Disc length: 3852 seconds
#
# Revision: 0
# Processed by: cddbd v1.5PL3 Copyright (c) Steve Scherf et al.
# Submitted via: CDex 1.51
#
DISCID=7e0f0a0a
DTITLE=Bob Berg - Another Standard
DYEAR=1997
DGENRE=Jazz
TTITLE0=You And The Night And The Music
TTITLE1=Summer Wind
TTITLE2=Michelle
TTITLE3=Just In Time
TTITLE4=My Man's Gone Now
TTITLE5=All The Way
TTITLE6=No Trouble
TTITLE7=It Was A Very Good Year
TTITLE8=I Could Write A Book
TTITLE9=It Could Happen To You
EXTD=YEAR: 1997
EXTT0=
EXTT1=
EXTT2=
EXTT3=
EXTT4=
EXTT5=
EXTT6=
EXTT7=
EXTT8=
EXTT9=
PLAYORDER=
